<?xml version="1.0" encoding="utf-8"?>
<!-- Generator: Adobe Illustrator 18.1.1, SVG Export Plug-In . SVG Version: 6.00 Build 0)  -->
<svg version="1.1" id="nodeschool-lx" xmlns:sketch="http://www.bohemiancoding.com/sketch/ns"
	 xmlns="http://www.w3.org/2000/svg" xmlns:xlink="http://www.w3.org/1999/xlink" x="0px" y="0px" viewBox="-55 147 500 500"
	 enable-background="new -55 147 500 500" xml:space="preserve">
<path id="bg" sketch:type="MSShapeGroup" fill="#FFFDDD" d="M8.8,290l185.6-107.2L379.9,290v214.3L194.4,611.3L8.8,504.2V290z"/>
<path id="outline" d="M383.3,284L197.7,176.9c-2.1-1.2-4.7-1.2-6.8,0L5.3,284c-2.1,1.2-3.4,3.5-3.4,5.9v214.3c0,2.4,1.3,4.7,3.4,5.9
	l185.6,107.1c1.1,0.6,2.2,0.9,3.4,0.9c1.2,0,2.4-0.3,3.4-0.9l185.6-107.1c2.1-1.2,3.4-3.5,3.4-5.9V289.9
	C386.7,287.5,385.4,285.2,383.3,284z M194.3,190.6l178.8,103.2l0.1,196.2H15.6l-0.3-196.2L194.3,190.6z M194.3,603.5L15.6,500.3
	l0-5.9h357.6l0,5.9L194.3,603.5z"/>
<path id="path4143" sketch:type="MSShapeGroup" d="M271.1,253.8L195.2,210l0,0c-0.1-0.1-0.2-0.1-0.3-0.1l0,0h-0.1h-0.1h-0.3
	c0,0,0,0-0.1,0h-0.1h-0.4l0,0c-0.1,0-0.2,0.1-0.3,0.1l0,0l-74.7,43.1c-0.9,0.5-1.2,1.6-0.7,2.5c0.5,0.9,1.7,1.2,2.5,0.7L187,218
	l-28.2,36c-0.6,0.8-0.5,2,0.3,2.6s2,0.5,2.6-0.3l30.8-39.3v38.4c0,1,0.8,1.9,1.9,1.9c1.1,0,1.9-0.8,1.9-1.9V217l30.8,39.3
	c0.4,0.5,0.9,0.7,1.5,0.7c0.4,0,0.8-0.1,1.1-0.4c0.8-0.6,0.9-1.8,0.3-2.6l-28.2-36l67.6,39c0.3,0.2,0.6,0.2,0.9,0.2
	c0.6,0,1.3-0.3,1.6-0.9C272.3,255.5,272,254.3,271.1,253.8L271.1,253.8z"/>
<path id="path4145" sketch:type="MSShapeGroup" d="M268.1,536l-66.3,38.3l28.2-36c0.6-0.8,0.5-2-0.3-2.6c-0.8-0.6-2-0.5-2.6,0.3
	l-30.8,39.3v-38.4c0-1-0.8-1.9-1.9-1.9c-1.1,0-1.9,0.8-1.9,1.9v38.4L161.7,536c-0.6-0.8-1.8-0.9-2.6-0.3c-0.8,0.6-0.9,1.8-0.3,2.6
	l28.2,36l-67.6-39c-0.9-0.5-2-0.2-2.5,0.7s-0.2,2,0.7,2.5l75.9,43.8c0.3,0.1,0.3,0.1,0.4,0.1c0.3,0,0.5,0.1,0.6,0.1
	c0.2,0,0.3,0,0.4-0.1c0.3,0,0.3-0.1,0.4-0.1l74.8-43.1c0.7-0.4,1-1.6,0.5-2.5C270.1,535.8,268.9,535.5,268.1,536z"/>
<path id="L" sketch:type="MSShapeGroup" d="M146.8,523.3c-0.3-0.6-0.1-1.3,0.5-1.7c0.6-0.3,1.3-0.1,1.7,0.5l3.9,6.8l4-2.3
	c0.5-0.3,1.2-0.1,1.5,0.4c0.3,0.5,0.1,1.2-0.4,1.5l-5,2.9c-0.6,0.3-1.3,0.1-1.7-0.5L146.8,523.3L146.8,523.3z"/>
<path id="X" sketch:type="MSShapeGroup" d="M229.9,525.7l4.5-1.7l-0.7-4.4c0-0.3,0-0.7,0.1-1c0.3-0.6,1.1-0.8,1.7-0.4
	c0.5,0.3,0.6,0.6,0.7,1.1l0.5,4.1l3.7-1.6c0.5-0.2,0.9-0.3,1.4,0s0.8,0.9,0.4,1.5c-0.2,0.3-0.4,0.5-0.8,0.6l-4.2,1.6l0.8,4.7
	c0,0.3,0,0.7-0.1,1c-0.3,0.6-1.1,0.8-1.7,0.4c-0.5-0.3-0.6-0.6-0.7-1.1l-0.6-4.3l-3.9,1.6c-0.5,0.2-0.9,0.3-1.4,0s-0.8-0.9-0.4-1.5
	C229.3,526,229.5,525.8,229.9,525.7L229.9,525.7z"/>
<circle id="circle4147" sketch:type="MSShapeGroup" cx="275.6" cy="533.2" r="2.3">
</circle>
<circle id="circle4147-copy" sketch:type="MSShapeGroup" cx="194.1" cy="520.5" r="2.3">
</circle>
<circle id="circle4149" sketch:type="MSShapeGroup" cx="112.1" cy="533.2" r="2.3">
</circle>
<path id="nodeschool" sketch:type="MSShapeGroup" d="M127.4,301.1c0.8,0,1.4-0.6,1.4-1.4v-7.1l5.8,7.6c0.4,0.5,0.8,0.9,1.5,0.9h0.1
	c0.8,0,1.5-0.6,1.5-1.5v-10.5c0-0.8-0.6-1.4-1.4-1.4s-1.4,0.6-1.4,1.4v6.8l-5.6-7.4c-0.4-0.5-0.8-0.9-1.5-0.9h-0.3
	c-0.8,0-1.5,0.6-1.5,1.5v10.5C126,300.5,126.6,301.1,127.4,301.1z M147.3,301.2c4.1,0,7.1-3.1,7.1-6.8c0-3.8-2.9-6.8-7-6.8
	c-4.1,0-7.1,3.1-7.1,6.8C140.3,298.2,143.2,301.2,147.3,301.2z M143.4,294.4c0-2.3,1.6-4.1,4-4.1c2.3,0,4,1.9,4,4.2s-1.6,4.1-4,4.1
	C145,298.5,143.4,296.7,143.4,294.4z M158.4,301h3.7c4.2,0,7-2.9,7-6.6c0-3.7-2.9-6.6-7-6.6h-3.7c-0.8,0-1.5,0.6-1.5,1.5v10.2
	C157,300.4,157.6,301,158.4,301z M159.9,290.4h2.2c2.4,0,4,1.6,4,4c0,2.3-1.6,4-4,4h-2.2V290.4z M173.2,301h7.4
	c0.7,0,1.3-0.6,1.3-1.3c0-0.7-0.6-1.3-1.3-1.3h-6v-2.8h5c0.7,0,1.3-0.6,1.3-1.3c0-0.7-0.6-1.3-1.3-1.3h-5v-2.7h5.9
	c0.7,0,1.3-0.6,1.3-1.3s-0.6-1.3-1.3-1.3h-7.3c-0.8,0-1.5,0.6-1.5,1.5v10.3C171.8,300.4,172.4,301,173.2,301z M184.2,299.6
	c1.5,1.1,3.2,1.6,5,1.6c2.9,0,4.9-1.5,4.9-4.1c0-2.3-1.5-3.3-4.2-4c-2.3-0.6-2.9-0.9-2.9-1.7c0-0.6,0.6-1.2,1.7-1.2
	c0.9,0,1.8,0.3,2.8,0.9c0.2,0.1,0.5,0.2,0.7,0.2c0.8,0,1.4-0.6,1.4-1.3c0-0.6-0.3-1-0.6-1.2c-1.2-0.8-2.6-1.2-4.2-1.2
	c-2.7,0-4.6,1.6-4.6,4c0,2.6,1.7,3.4,4.4,4c2.2,0.6,2.7,0.9,2.7,1.7c0,0.8-0.7,1.2-1.9,1.2c-1.3,0-2.4-0.5-3.4-1.2
	c-0.2-0.1-0.5-0.3-0.8-0.3c-0.8,0-1.4,0.6-1.4,1.3C183.6,299,183.9,299.4,184.2,299.6z M202.7,301.2c2.1,0,3.5-0.6,4.7-1.7
	c0.3-0.2,0.5-0.6,0.5-1c0-0.7-0.6-1.3-1.4-1.3c-0.3,0-0.6,0.1-0.9,0.3c-0.8,0.7-1.6,1-2.9,1c-2.3,0-3.8-1.9-3.8-4.2
	c0-2.3,1.6-4.1,3.8-4.1c1,0,1.9,0.3,2.7,0.9c0.2,0.1,0.5,0.3,0.9,0.3c0.8,0,1.4-0.6,1.4-1.4c0-0.5-0.3-0.9-0.6-1.2
	c-1.1-0.8-2.4-1.3-4.4-1.3c-4.1,0-6.9,3.1-6.9,6.8C196,298.2,198.9,301.2,202.7,301.2L202.7,301.2z M212,301.1
	c0.8,0,1.5-0.6,1.5-1.5v-4h5.4v4c0,0.8,0.6,1.5,1.5,1.5c0.8,0,1.5-0.6,1.5-1.5v-10.5c0-0.8-0.6-1.5-1.5-1.5c-0.8,0-1.5,0.6-1.5,1.5
	v3.9h-5.4v-3.9c0-0.8-0.6-1.5-1.5-1.5c-0.8,0-1.5,0.6-1.5,1.5v10.5C210.5,300.5,211.1,301.1,212,301.1z M231.3,301.2
	c4.1,0,7-3.1,7-6.8c0-3.8-2.9-6.8-7-6.8c-4.1,0-7.1,3.1-7.1,6.8C224.3,298.2,227.2,301.2,231.3,301.2z M227.3,294.4
	c0-2.3,1.6-4.1,4-4.1c2.3,0,4,1.9,4,4.2s-1.6,4.1-4,4.1C229,298.5,227.3,296.7,227.3,294.4z M247.4,301.2c4.1,0,7.1-3.1,7.1-6.8
	c0-3.8-2.9-6.8-7-6.8s-7.1,3.1-7.1,6.8C240.4,298.2,243.3,301.2,247.4,301.2z M243.4,294.4c0-2.3,1.6-4.1,4-4.1c2.3,0,4,1.9,4,4.2
	s-1.6,4.1-4,4.1C245.1,298.5,243.4,296.7,243.4,294.4z M258.5,301h6.8c0.7,0,1.3-0.6,1.3-1.3c0-0.7-0.6-1.3-1.3-1.3h-5.4v-9.2
	c0-0.8-0.6-1.5-1.5-1.5c-0.8,0-1.5,0.6-1.5,1.5v10.3C257,300.4,257.7,301,258.5,301z"/>
<g id="eletrico">
	<path id="white" sketch:type="MSShapeGroup" fill="#FFFFFF" d="M346.4,385.6v-8.9H43.1v8.9c0.5,0,1.1,0,1.7,0c9.4,0,15,3.3,15,3.3
		v35.6H43.1v34.4l-8.9,8.9v4.4h321.1v-4.4l-8.9-8.9v-34.4h-15.6v-35.6c0,0,4.4-3.3,15-3.3C346.1,385.6,346.3,385.6,346.4,385.6
		L346.4,385.6L346.4,385.6z M96.4,391.1c0,0,4.5-3.4,15.1-3.4c9.5,0,15.1,3.4,15.1,3.4v39.1H96.4V391.1L96.4,391.1z M129.8,391.1
		c0,0,4.5-3.4,15.1-3.4c9.5,0,15.1,3.4,15.1,3.4v39.1h-30.2V391.1L129.8,391.1z M163.1,391.1c0,0,4.5-3.4,15.1-3.4
		c9.5,0,15.1,3.4,15.1,3.4v39.1h-30.2V391.1L163.1,391.1z M196.4,391.1c0,0,4.5-3.4,15.1-3.4c9.5,0,15.1,3.4,15.1,3.4v39.1h-30.2
		V391.1L196.4,391.1z M229.8,391.1c0,0,4.4-3.3,15-3.3c9.4,0,15,3.3,15,3.3V430h-30V391.1L229.8,391.1z M263.1,391.1
		c0,0,4.5-3.4,15.1-3.4c9.5,0,15.1,3.4,15.1,3.4v39.1h-30.2V391.1L263.1,391.1z M69.6,433.3h9v37h-9V433.3L69.6,433.3z M69.6,393.3
		h9v31h-9V393.3L69.6,393.3z M81.6,433.3h7v37h-7V433.3L81.6,433.3z M81.6,393.3h7v31h-7V393.3L81.6,393.3z M301.6,433.3h6v37h-6
		V433.3L301.6,433.3z M301.6,393.3h6v31h-6V393.3L301.6,393.3z M312.6,433.3h8v37h-8V433.3L312.6,433.3z M312.6,393.3h8v31h-8V393.3
		L312.6,393.3z"/>
	<path id="yellow" sketch:type="MSShapeGroup" fill="#F8DC11" d="M44.2,458.7v-29.9h47.7l0,5.6l205.7,0V429h48v31l10.3,9.8v3.4
		l-321.3-1.1V469L44.2,458.7z"/>
	<path id="rails" sketch:type="MSShapeGroup" d="M33.1,476h323.9v2H33.1V476z M33.1,480h323.9v2H33.1V480z"/>
	<path id="wheel" sketch:type="MSShapeGroup" d="M169.6,480c-1,5.7-6,10-12,10s-11-4.3-12-10h2.3c1,4.5,5,7.8,9.8,7.8
		s8.7-3.3,9.8-7.8H169.6z"/>
	<path id="wheel_1_" sketch:type="MSShapeGroup" d="M246.2,480c-1,5.7-6,10-12,10c-6,0-11-4.3-12-10h2.3c1,4.5,5,7.8,9.8,7.8
		c4.8,0,8.7-3.3,9.8-7.8H246.2z"/>
	<path id="wheel-fill_1_" sketch:type="MSShapeGroup" fill="#9B9B9B" d="M244,480c-1,4.5-5,7.8-9.8,7.8c-4.8,0-8.7-3.3-9.8-7.8H244z
		"/>
	<path id="wheel-fill" sketch:type="MSShapeGroup" fill="#9B9B9B" d="M167.3,480c-1,4.5-5,7.8-9.8,7.8s-8.7-3.3-9.8-7.8H167.3z"/>
	
		<path id="body" sketch:type="MSShapeGroup" fill="none" stroke="#000000" stroke-width="3" stroke-linecap="round" stroke-linejoin="round" d="
		M43.6,460l-9,9v4h321v-4l-9-9v-83h-303V460z"/>
	
		<path id="chasis" sketch:type="MSShapeGroup" fill="#9B9B9B" stroke="#000000" stroke-width="2" stroke-linecap="round" stroke-linejoin="round" d="
		M129.6,470v14h133v-14H129.6z"/>
	<path id="light" sketch:type="MSShapeGroup" d="M346.1,453.3c2.5-0.3,4.4-2.4,4.4-5s-1.9-4.7-4.4-5V453.3z"/>
	<path id="light_1_" sketch:type="MSShapeGroup" d="M44.1,443.4c-2.5,0.3-4.4,2.4-4.4,5s1.9,4.7,4.4,5V443.4z"/>
	<g id="door-front" transform="translate(348.888889, 241.885573)" sketch:type="MSLayerGroup">
		<rect id="gray" x="-51.3" y="232.1" sketch:type="MSShapeGroup" fill="#9B9B9B" width="28" height="7.9">
		</rect>
		<rect id="yellow_1_" x="-51.3" y="187.1" sketch:type="MSShapeGroup" fill="#F8DC11" width="28" height="44">
		</rect>
		<path id="white_1_" sketch:type="MSShapeGroup" fill="#FFFCDC" d="M-47.3,191h6v36h-6V191z M-37.3,191h9v36h-9V191z"/>
		<g>
			<path d="M-26.9,151.4H-38v32.2h11.1V151.4z M-29.1,181.4h-6.7v-27.8h6.7V181.4z"/>
			<path d="M-26.9,190.3H-38v37.8h11.1V190.3z M-29.1,225.9h-6.7v-33.3h6.7V225.9z"/>
			<path d="M-52.4,147v94.4h30V147H-52.4z M-24.7,239.2h-25.6v-6.7h25.6V239.2z M-24.7,230.3h-25.6v-81.1h25.6V230.3z"/>
			<path d="M-40.2,151.4H-48v32.2h7.8V151.4z M-42.4,181.4h-3.3v-27.8h3.3V181.4z"/>
			<path d="M-40.2,190.3H-48v37.8h7.8V190.3z M-42.4,225.9h-3.3v-33.3h3.3V225.9z"/>
		</g>
	</g>
	
		<g id="door-back" transform="translate(130.555556, 289.385573) scale(-1, 1) translate(-130.555556, -289.385573) translate(115.555556, 241.885573)" sketch:type="MSLayerGroup">
		<rect id="gray_1_" x="54" y="240.1" sketch:type="MSShapeGroup" fill="#9B9B9B" width="27" height="-8">
		</rect>
		<rect id="yellow_2_" x="54" y="231.1" sketch:type="MSShapeGroup" fill="#F8DC11" width="27" height="-44">
		</rect>
		<path id="white_2_" sketch:type="MSShapeGroup" fill="#FFFCDC" d="M58.4,191h6v36h-6V191z M68.1,191h9v36h-9V191z"/>
		<g>
			<path d="M56.9,190.3h7.8v37.8h-7.8V190.3z M59.1,225.9h3.3v-33.3h-3.3V225.9z"/>
			<path d="M56.9,151.4h7.8v32.2h-7.8V151.4z M59.1,181.4h3.3v-27.8h-3.3V181.4z"/>
			<path d="M66.9,151.4H78v32.2H66.9V151.4z M69.1,181.4h6.7v-27.8h-6.7V181.4z"/>
			<path d="M82.4,147v94.4h-30V147H82.4z M54.7,239.2h25.6v-6.7H54.7V239.2z M54.7,230.3h25.6v-81.1H54.7V230.3z"/>
			<path d="M66.9,190.3H78v37.8H66.9V190.3z M69.1,225.9h6.7v-33.3h-6.7V225.9z"/>
		</g>
	</g>
	<path id="cable-connector" sketch:type="MSShapeGroup" d="M102.9,302.1c0.1-0.3,0.2-0.6,0.2-1c0-1.7-1.3-3-3-3s-3,1.3-3,3
		c0,1.7,1.3,3,3,3c0.4,0,0.9-0.1,1.2-0.3l111.3,64.3l1.2-2L102.9,302.1z"/>
	
		<path id="roof-stuff" sketch:type="MSShapeGroup" fill="#9B9B9B" stroke="#000000" stroke-width="2" stroke-linecap="round" stroke-linejoin="round" d="
		M67.6,346l15,18h-15V346z M322.6,346l-15,18h15V346z M121.6,353h31v9h-31V353z M279.6,349h17v10h-17V349z M242.6,353h17v7h-17V353z
		 M172.6,353h42v7h-42V353z"/>
	
		<path id="roof" sketch:type="MSShapeGroup" fill="#9B9B9B" stroke="#000000" stroke-width="3" stroke-linecap="round" stroke-linejoin="round" d="
		M43.6,377c0,0,0-19,28-19c32.9,0,214.1,0,247,0c28,0,28,19,28,19v3h-303V377z"/>
	<path id="hump_2_" sketch:type="MSShapeGroup" fill="#9B9B9B" stroke="#000000" stroke-width="2" d="M118.7,360.6
		c0-4.1-4.2-7.3-8.8-7.3c-5.8,0-10.1,3.2-10.1,7.3C99.8,364.3,118.7,364.3,118.7,360.6z"/>
	<path id="hump_1_" sketch:type="MSShapeGroup" fill="#9B9B9B" stroke="#000000" stroke-width="2" d="M175.3,360.6
		c0-4.1-4.2-7.3-8.8-7.3c-5.8,0-10.1,3.2-10.1,7.3C156.4,364.3,175.3,364.3,175.3,360.6z"/>
	<path id="hump" sketch:type="MSShapeGroup" fill="#9B9B9B" stroke="#000000" stroke-width="2" d="M230.9,360.6
		c0-4.1-4.2-7.3-8.8-7.3c-5.8,0-10.1,3.2-10.1,7.3C212,364.3,230.9,364.3,230.9,360.6z"/>
	<path id="hump_3_" sketch:type="MSShapeGroup" fill="#9B9B9B" stroke="#000000" stroke-width="2" d="M288.7,360.6
		c0-4.1-4.2-7.3-8.8-7.3c-5.8,0-10.1,3.2-10.1,7.3C269.8,364.3,288.7,364.3,288.7,360.6z"/>
	<path id="window_5_" d="M111.5,387.8c-10.6,0-15.1,3.4-15.1,3.4v39.1h30.2v-39.1C126.6,391.1,121,387.8,111.5,387.8z M124.4,428
		H98.7v-24.6h25.7V428z M124.4,401.2H98.7v-8.9c0,0,5.3-2.2,12.8-2.2c7.1,0,12.8,2.2,12.8,2.2V401.2z"/>
	<path id="window_4_" d="M144.9,387.8c-10.6,0-15.1,3.4-15.1,3.4v39.1h30.2v-39.1C159.9,391.1,154.4,387.8,144.9,387.8z M157.7,428
		H132v-24.6h25.7V428z M157.7,401.2H132v-8.9c0,0,5.3-2.2,12.8-2.2c7.1,0,12.8,2.2,12.8,2.2V401.2z"/>
	<path id="window_3_" d="M178.2,387.8c-10.6,0-15.1,3.4-15.1,3.4v39.1h30.2v-39.1C193.3,391.1,187.7,387.8,178.2,387.8z M191,428
		h-25.7v-24.6H191V428z M191,401.2h-25.7v-8.9c0,0,5.3-2.2,12.8-2.2c7.1,0,12.8,2.2,12.8,2.2V401.2z"/>
	<path id="window_2_" d="M211.5,387.8c-10.6,0-15.1,3.4-15.1,3.4v39.1h30.2v-39.1C226.6,391.1,221,387.8,211.5,387.8z M224.4,428
		h-25.7v-24.6h25.7V428z M224.4,401.2h-25.7v-8.9c0,0,5.3-2.2,12.8-2.2c7.1,0,12.8,2.2,12.8,2.2V401.2z"/>
	<path id="window_1_" d="M244.8,387.8c-10.6,0-15,3.3-15,3.3V430h30v-38.9C259.8,391.1,254.2,387.8,244.8,387.8z M257.6,427.8H232
		v-24.4h25.6V427.8z M257.6,401.1H232v-8.9c0,0,5.3-2.2,12.8-2.2c7.1,0,12.8,2.2,12.8,2.2V401.1z"/>
	<path id="window" d="M278.2,387.8c-10.6,0-15.1,3.4-15.1,3.4v39.1h30.2v-39.1C293.3,391.1,287.7,387.8,278.2,387.8z M291,428h-25.7
		v-24.6H291V428z M291,401.2h-25.7v-8.9c0,0,5.3-2.2,12.8-2.2c7.1,0,12.8,2.2,12.8,2.2V401.2z"/>
	<path id="window-back" sketch:type="MSShapeGroup" d="M44.2,385.6c0.2,0,0.4,0,0.6,0c9.4,0,15,3.3,15,3.3v35.6H44.2v-2.2h13.3V390
		c0,0-5.7-2.2-12.8-2.2c-0.2,0-0.4,0-0.6,0V385.6L44.2,385.6z"/>
	<path id="window-front" sketch:type="MSShapeGroup" d="M345.9,385.6c-0.2,0-1.4,0-1.6,0c-9.4,0-15,3.3-15,3.3v35.6h17.6v-2.2h-15.3
		V390c0,0,5.7-2.2,12.8-2.2c0.2,0,1.4,0,1.6,0V385.6h-1H345.9z"/>
	<path id="separator" sketch:type="MSShapeGroup" d="M43.3,427.8h48.6v2.2H43.3V427.8z M298.3,427.8h47.9v2.2h-47.9V427.8z
		 M92.3,433.3h205.2v2.2H92.3V433.3z"/>
</g>
</svg>
